<?xml version="1.0" encoding="UTF-8"?><svg id="uuid-69d23f09-8914-406b-bdb8-2148523fb31c" xmlns="http://www.w3.org/2000/svg" viewBox="0 0 31 31"><defs><style>.uuid-51ddb0a9-f51b-4a30-8200-1923170bd4a0{fill:#cd0202;}.uuid-72e3fd29-c590-4cfe-889f-f318d0aa7d46{fill:#ff9b9b;}.uuid-a81c1f96-41e5-425b-bbb7-3899c2d6f17a{fill:#fe0000;}</style></defs><g id="uuid-a0013222-0a90-454d-b3ac-80658f92de66"><rect x="6.89" width="6.89" height="3.44"/><rect x="3.44" y="3.44" width="3.45" height="3.45"/><rect x="3.44" y="3.44" width="3.45" height="3.45"/><rect y="6.89" width="3.44" height="10.33"/><rect x="3.44" y="17.22" width="3.45" height="3.45"/><rect x="6.89" y="20.67" width="3.44" height="3.44"/><rect x="10.33" y="24.11" width="3.45" height="3.45"/><rect x="13.78" y="27.56" width="3.44" height="3.44"/><rect x="13.78" y="3.44" width="3.44" height="3.45"/><rect x="17.22" width="6.89" height="3.44"/><rect x="24.11" y="3.44" width="3.45" height="3.45"/><rect x="24.11" y="3.44" width="3.45" height="3.45"/><rect x="27.56" y="6.89" width="3.44" height="10.33"/><rect x="24.11" y="17.22" width="3.45" height="3.45"/><rect x="20.67" y="20.67" width="3.44" height="3.44"/><polygon class="uuid-a81c1f96-41e5-425b-bbb7-3899c2d6f17a" points="27.56 6.89 27.56 17.22 24.11 17.22 24.11 20.67 20.67 20.67 20.67 24.11 17.22 24.11 17.22 27.56 13.78 27.56 13.78 24.11 10.33 24.11 10.33 20.67 6.89 20.67 6.89 17.22 3.44 17.22 3.44 6.89 6.89 6.89 6.89 3.44 13.78 3.44 13.78 6.89 17.22 6.89 17.22 3.44 24.11 3.44 24.11 6.89 27.56 6.89"/><rect x="17.22" y="24.11" width="3.45" height="3.45"/><rect class="uuid-72e3fd29-c590-4cfe-889f-f318d0aa7d46" x="6.89" y="6.89" width="3.44" height="3.44"/><g><rect class="uuid-51ddb0a9-f51b-4a30-8200-1923170bd4a0" x="20.67" y="17.23" width="3.44" height="3.44"/><rect class="uuid-51ddb0a9-f51b-4a30-8200-1923170bd4a0" x="13.78" y="24.11" width="3.44" height="3.44"/><rect class="uuid-51ddb0a9-f51b-4a30-8200-1923170bd4a0" x="10.33" y="20.67" width="3.44" height="3.44"/><rect class="uuid-51ddb0a9-f51b-4a30-8200-1923170bd4a0" x="24.11" y="13.78" width="3.45" height="3.45"/><rect class="uuid-51ddb0a9-f51b-4a30-8200-1923170bd4a0" x="3.44" y="13.78" width="3.45" height="3.45"/><rect class="uuid-51ddb0a9-f51b-4a30-8200-1923170bd4a0" x="17.22" y="20.67" width="3.44" height="3.44"/><rect class="uuid-51ddb0a9-f51b-4a30-8200-1923170bd4a0" x="6.89" y="17.23" width="3.44" height="3.44"/></g></g></svg>