<?xml version="1.0" encoding="UTF-8"?><svg id="uuid-c2aebd78-7e9c-4c5a-81b5-9215c8d699cf" xmlns="http://www.w3.org/2000/svg" viewBox="0 0 31 31"><g id="uuid-98b727ae-0d55-4412-8782-fbc5df6efc7b"><polygon points="27.56 6.89 27.56 3.44 24.11 3.44 24.11 0 20.67 0 17.22 0 17.22 3.44 13.78 3.44 13.78 0 10.33 0 6.89 0 6.89 3.44 3.44 3.44 3.44 6.89 0 6.89 0 10.33 0 13.78 0 17.22 3.44 17.22 3.44 20.67 6.89 20.67 6.89 24.11 10.33 24.11 10.33 27.56 13.78 27.56 13.78 31 17.22 31 17.22 27.56 20.67 27.56 20.67 24.11 24.11 24.11 24.11 20.67 27.56 20.67 27.56 17.22 31 17.22 31 13.78 31 10.33 31 6.89 27.56 6.89"/></g></svg>